<?xml version="1.0" encoding="utf-8" standalone="no"?>
<!DOCTYPE svg PUBLIC "-//W3C//DTD SVG 1.1//EN"
  "http://www.w3.org/Graphics/SVG/1.1/DTD/svg11.dtd">
<svg height="345.6pt" version="1.1" viewBox="0 0 460.8 345.6" width="460.8pt" xmlns="http://www.w3.org/2000/svg" xmlns:xlink="http://www.w3.org/1999/xlink">
 <metadata>
  <rdf:RDF xmlns:cc="http://creativecommons.org/ns#" xmlns:dc="http://purl.org/dc/elements/1.1/" xmlns:rdf="http://www.w3.org/1999/02/22-rdf-syntax-ns#">
   <cc:Work>
    <dc:type rdf:resource="http://purl.org/dc/dcmitype/StillImage"/>
    <dc:date>2021-05-21T12:07:53.542998</dc:date>
    <dc:format>image/svg+xml</dc:format>
    <dc:creator>
     <cc:Agent>
      <dc:title>Matplotlib v3.4.2, https://matplotlib.org/</dc:title>
     </cc:Agent>
    </dc:creator>
   </cc:Work>
  </rdf:RDF>
 </metadata>
 <defs>
  <style type="text/css">*{stroke-linecap:butt;stroke-linejoin:round;}</style>
 </defs>
 <g id="figure_1">
  <g id="patch_1">
   <path d="M 0 345.6 
L 460.8 345.6 
L 460.8 0 
L 0 0 
z
" style="fill:#ffffff;"/>
  </g>
  <g id="axes_1">
   <g id="patch_2">
    <path d="M 43.09 317.72 
L 450 317.72 
L 450 26.88 
L 43.09 26.88 
z
" style="fill:#ffffff;"/>
   </g>
   <g id="patch_3">
    <path clip-path="url(#p16ca0fd0ba)" d="M 61.585909 317.72 
L 73.227331 317.72 
L 73.227331 198.891323 
L 61.585909 198.891323 
z
" style="fill:#1f77b4;opacity:0.6;"/>
   </g>
   <g id="patch_4">
    <path clip-path="url(#p16ca0fd0ba)" d="M 73.227331 317.72 
L 84.868746 317.72 
L 84.868746 149.132554 
L 73.227331 149.132554 
z
" style="fill:#1f77b4;opacity:0.6;"/>
   </g>
   <g id="patch_5">
    <path clip-path="url(#p16ca0fd0ba)" d="M 84.86874 317.72 
L 96.510162 317.72 
L 96.510162 295.565501 
L 84.86874 295.565501 
z
" style="fill:#1f77b4;opacity:0.6;"/>
   </g>
   <g id="patch_6">
    <path clip-path="url(#p16ca0fd0ba)" d="M 96.510168 317.72 
L 108.151584 317.72 
L 108.151584 314.995115 
L 96.510168 314.995115 
z
" style="fill:#1f77b4;opacity:0.6;"/>
   </g>
   <g id="patch_7">
    <path clip-path="url(#p16ca0fd0ba)" d="M 108.151584 317.72 
L 119.793012 317.72 
L 119.793012 316.298321 
L 108.151584 316.298321 
z
" style="fill:#1f77b4;opacity:0.6;"/>
   </g>
   <g id="patch_8">
    <path clip-path="url(#p16ca0fd0ba)" d="M 119.793012 317.72 
L 131.434427 317.72 
L 131.434427 317.127634 
L 119.793012 317.127634 
z
" style="fill:#1f77b4;opacity:0.6;"/>
   </g>
   <g id="patch_9">
    <path clip-path="url(#p16ca0fd0ba)" d="M 131.43444 317.72 
L 143.075856 317.72 
L 143.075856 317.127634 
L 131.43444 317.127634 
z
" style="fill:#1f77b4;opacity:0.6;"/>
   </g>
   <g id="patch_10">
    <path clip-path="url(#p16ca0fd0ba)" d="M 143.075843 317.72 
L 154.717258 317.72 
L 154.717258 317.127634 
L 143.075843 317.127634 
z
" style="fill:#1f77b4;opacity:0.6;"/>
   </g>
   <g id="patch_11">
    <path clip-path="url(#p16ca0fd0ba)" d="M 154.717258 317.72 
L 166.358687 317.72 
L 166.358687 317.127634 
L 154.717258 317.127634 
z
" style="fill:#1f77b4;opacity:0.6;"/>
   </g>
   <g id="patch_12">
    <path clip-path="url(#p16ca0fd0ba)" d="M 166.358699 317.72 
L 178.000115 317.72 
L 178.000115 317.246107 
L 166.358699 317.246107 
z
" style="fill:#1f77b4;opacity:0.6;"/>
   </g>
   <g id="patch_13">
    <path clip-path="url(#p16ca0fd0ba)" d="M 178.000102 317.72 
L 189.641518 317.72 
L 189.641518 317.36458 
L 178.000102 317.36458 
z
" style="fill:#1f77b4;opacity:0.6;"/>
   </g>
   <g id="patch_14">
    <path clip-path="url(#p16ca0fd0ba)" d="M 189.641518 317.72 
L 201.282946 317.72 
L 201.282946 317.36458 
L 189.641518 317.36458 
z
" style="fill:#1f77b4;opacity:0.6;"/>
   </g>
   <g id="patch_15">
    <path clip-path="url(#p16ca0fd0ba)" d="M 201.282958 317.72 
L 212.924374 317.72 
L 212.924374 317.72 
L 201.282958 317.72 
z
" style="fill:#1f77b4;opacity:0.6;"/>
   </g>
   <g id="patch_16">
    <path clip-path="url(#p16ca0fd0ba)" d="M 212.924361 317.72 
L 224.565789 317.72 
L 224.565789 317.483053 
L 212.924361 317.483053 
z
" style="fill:#1f77b4;opacity:0.6;"/>
   </g>
   <g id="patch_17">
    <path clip-path="url(#p16ca0fd0ba)" d="M 224.565789 317.72 
L 236.207192 317.72 
L 236.207192 317.483053 
L 224.565789 317.483053 
z
" style="fill:#1f77b4;opacity:0.6;"/>
   </g>
   <g id="patch_18">
    <path clip-path="url(#p16ca0fd0ba)" d="M 236.207192 317.72 
L 247.84862 317.72 
L 247.84862 317.36458 
L 236.207192 317.36458 
z
" style="fill:#1f77b4;opacity:0.6;"/>
   </g>
   <g id="patch_19">
    <path clip-path="url(#p16ca0fd0ba)" d="M 247.848646 317.72 
L 259.490074 317.72 
L 259.490074 317.601527 
L 247.848646 317.601527 
z
" style="fill:#1f77b4;opacity:0.6;"/>
   </g>
   <g id="patch_20">
    <path clip-path="url(#p16ca0fd0ba)" d="M 259.490049 317.72 
L 271.131451 317.72 
L 271.131451 317.601527 
L 259.490049 317.601527 
z
" style="fill:#1f77b4;opacity:0.6;"/>
   </g>
   <g id="patch_21">
    <path clip-path="url(#p16ca0fd0ba)" d="M 271.131451 317.72 
L 282.77288 317.72 
L 282.77288 317.601527 
L 271.131451 317.601527 
z
" style="fill:#1f77b4;opacity:0.6;"/>
   </g>
   <g id="patch_22">
    <path clip-path="url(#p16ca0fd0ba)" d="M 282.772905 317.72 
L 294.414333 317.72 
L 294.414333 317.601527 
L 282.772905 317.601527 
z
" style="fill:#1f77b4;opacity:0.6;"/>
   </g>
   <g id="patch_23">
    <path clip-path="url(#p16ca0fd0ba)" d="M 294.414308 317.72 
L 306.055711 317.72 
L 306.055711 317.601527 
L 294.414308 317.601527 
z
" style="fill:#1f77b4;opacity:0.6;"/>
   </g>
   <g id="patch_24">
    <path clip-path="url(#p16ca0fd0ba)" d="M 306.055711 317.72 
L 317.697139 317.72 
L 317.697139 317.483053 
L 306.055711 317.483053 
z
" style="fill:#1f77b4;opacity:0.6;"/>
   </g>
   <g id="patch_25">
    <path clip-path="url(#p16ca0fd0ba)" d="M 317.697139 317.72 
L 329.338542 317.72 
L 329.338542 317.36458 
L 317.697139 317.36458 
z
" style="fill:#1f77b4;opacity:0.6;"/>
   </g>
   <g id="patch_26">
    <path clip-path="url(#p16ca0fd0ba)" d="M 329.338567 317.72 
L 340.979995 317.72 
L 340.979995 317.601527 
L 329.338567 317.601527 
z
" style="fill:#1f77b4;opacity:0.6;"/>
   </g>
   <g id="patch_27">
    <path clip-path="url(#p16ca0fd0ba)" d="M 340.97997 317.72 
L 352.621398 317.72 
L 352.621398 317.601527 
L 340.97997 317.601527 
z
" style="fill:#1f77b4;opacity:0.6;"/>
   </g>
   <g id="patch_28">
    <path clip-path="url(#p16ca0fd0ba)" d="M 352.621398 317.72 
L 364.262801 317.72 
L 364.262801 317.00916 
L 352.621398 317.00916 
z
" style="fill:#1f77b4;opacity:0.6;"/>
   </g>
   <g id="patch_29">
    <path clip-path="url(#p16ca0fd0ba)" d="M 364.262826 317.72 
L 375.904254 317.72 
L 375.904254 316.772214 
L 364.262826 316.772214 
z
" style="fill:#1f77b4;opacity:0.6;"/>
   </g>
   <g id="patch_30">
    <path clip-path="url(#p16ca0fd0ba)" d="M 375.904229 317.72 
L 387.545657 317.72 
L 387.545657 316.890687 
L 375.904229 316.890687 
z
" style="fill:#1f77b4;opacity:0.6;"/>
   </g>
   <g id="patch_31">
    <path clip-path="url(#p16ca0fd0ba)" d="M 387.545657 317.72 
L 399.18706 317.72 
L 399.18706 316.890687 
L 387.545657 316.890687 
z
" style="fill:#1f77b4;opacity:0.6;"/>
   </g>
   <g id="patch_32">
    <path clip-path="url(#p16ca0fd0ba)" d="M 399.187085 317.72 
L 410.828514 317.72 
L 410.828514 316.653741 
L 399.187085 316.653741 
z
" style="fill:#1f77b4;opacity:0.6;"/>
   </g>
   <g id="patch_33">
    <path clip-path="url(#p16ca0fd0ba)" d="M 62.669185 317.72 
L 74.963681 317.72 
L 74.963681 215.951472 
L 62.669185 215.951472 
z
" style="fill:#ff7f0e;opacity:0.6;"/>
   </g>
   <g id="patch_34">
    <path clip-path="url(#p16ca0fd0ba)" d="M 74.963681 317.72 
L 87.258178 317.72 
L 87.258178 227.324904 
L 74.963681 227.324904 
z
" style="fill:#ff7f0e;opacity:0.6;"/>
   </g>
   <g id="patch_35">
    <path clip-path="url(#p16ca0fd0ba)" d="M 87.258178 317.72 
L 99.552674 317.72 
L 99.552674 301.607637 
L 87.258178 301.607637 
z
" style="fill:#ff7f0e;opacity:0.6;"/>
   </g>
   <g id="patch_36">
    <path clip-path="url(#p16ca0fd0ba)" d="M 99.552674 317.72 
L 111.84717 317.72 
L 111.84717 314.165802 
L 99.552674 314.165802 
z
" style="fill:#ff7f0e;opacity:0.6;"/>
   </g>
   <g id="patch_37">
    <path clip-path="url(#p16ca0fd0ba)" d="M 111.84717 317.72 
L 124.141667 317.72 
L 124.141667 314.165802 
L 111.84717 314.165802 
z
" style="fill:#ff7f0e;opacity:0.6;"/>
   </g>
   <g id="patch_38">
    <path clip-path="url(#p16ca0fd0ba)" d="M 124.141667 317.72 
L 136.436163 317.72 
L 136.436163 315.232062 
L 124.141667 315.232062 
z
" style="fill:#ff7f0e;opacity:0.6;"/>
   </g>
   <g id="patch_39">
    <path clip-path="url(#p16ca0fd0ba)" d="M 136.436163 317.72 
L 148.73066 317.72 
L 148.73066 315.350535 
L 136.436163 315.350535 
z
" style="fill:#ff7f0e;opacity:0.6;"/>
   </g>
   <g id="patch_40">
    <path clip-path="url(#p16ca0fd0ba)" d="M 148.73066 317.72 
L 161.025156 317.72 
L 161.025156 315.232062 
L 148.73066 315.232062 
z
" style="fill:#ff7f0e;opacity:0.6;"/>
   </g>
   <g id="patch_41">
    <path clip-path="url(#p16ca0fd0ba)" d="M 161.025156 317.72 
L 173.319653 317.72 
L 173.319653 315.469008 
L 161.025156 315.469008 
z
" style="fill:#ff7f0e;opacity:0.6;"/>
   </g>
   <g id="patch_42">
    <path clip-path="url(#p16ca0fd0ba)" d="M 173.319653 317.72 
L 185.614149 317.72 
L 185.614149 315.942901 
L 173.319653 315.942901 
z
" style="fill:#ff7f0e;opacity:0.6;"/>
   </g>
   <g id="patch_43">
    <path clip-path="url(#p16ca0fd0ba)" d="M 185.614149 317.72 
L 197.908646 317.72 
L 197.908646 315.824428 
L 185.614149 315.824428 
z
" style="fill:#ff7f0e;opacity:0.6;"/>
   </g>
   <g id="patch_44">
    <path clip-path="url(#p16ca0fd0ba)" d="M 197.908646 317.72 
L 210.203142 317.72 
L 210.203142 315.350535 
L 197.908646 315.350535 
z
" style="fill:#ff7f0e;opacity:0.6;"/>
   </g>
   <g id="patch_45">
    <path clip-path="url(#p16ca0fd0ba)" d="M 210.203155 317.72 
L 222.497651 317.72 
L 222.497651 314.758169 
L 210.203155 314.758169 
z
" style="fill:#ff7f0e;opacity:0.6;"/>
   </g>
   <g id="patch_46">
    <path clip-path="url(#p16ca0fd0ba)" d="M 222.497651 317.72 
L 234.792148 317.72 
L 234.792148 315.232062 
L 222.497651 315.232062 
z
" style="fill:#ff7f0e;opacity:0.6;"/>
   </g>
   <g id="patch_47">
    <path clip-path="url(#p16ca0fd0ba)" d="M 234.792148 317.72 
L 247.086644 317.72 
L 247.086644 313.810383 
L 234.792148 313.810383 
z
" style="fill:#ff7f0e;opacity:0.6;"/>
   </g>
   <g id="patch_48">
    <path clip-path="url(#p16ca0fd0ba)" d="M 247.086644 317.72 
L 259.381141 317.72 
L 259.381141 314.639695 
L 247.086644 314.639695 
z
" style="fill:#ff7f0e;opacity:0.6;"/>
   </g>
   <g id="patch_49">
    <path clip-path="url(#p16ca0fd0ba)" d="M 259.381141 317.72 
L 271.675637 317.72 
L 271.675637 314.165802 
L 259.381141 314.165802 
z
" style="fill:#ff7f0e;opacity:0.6;"/>
   </g>
   <g id="patch_50">
    <path clip-path="url(#p16ca0fd0ba)" d="M 271.675637 317.72 
L 283.970133 317.72 
L 283.970133 315.113588 
L 271.675637 315.113588 
z
" style="fill:#ff7f0e;opacity:0.6;"/>
   </g>
   <g id="patch_51">
    <path clip-path="url(#p16ca0fd0ba)" d="M 283.970133 317.72 
L 296.26463 317.72 
L 296.26463 314.521222 
L 283.970133 314.521222 
z
" style="fill:#ff7f0e;opacity:0.6;"/>
   </g>
   <g id="patch_52">
    <path clip-path="url(#p16ca0fd0ba)" d="M 296.26463 317.72 
L 308.559126 317.72 
L 308.559126 313.691909 
L 296.26463 313.691909 
z
" style="fill:#ff7f0e;opacity:0.6;"/>
   </g>
   <g id="patch_53">
    <path clip-path="url(#p16ca0fd0ba)" d="M 308.559126 317.72 
L 320.853623 317.72 
L 320.853623 313.099543 
L 308.559126 313.099543 
z
" style="fill:#ff7f0e;opacity:0.6;"/>
   </g>
   <g id="patch_54">
    <path clip-path="url(#p16ca0fd0ba)" d="M 320.853623 317.72 
L 333.148119 317.72 
L 333.148119 312.388703 
L 320.853623 312.388703 
z
" style="fill:#ff7f0e;opacity:0.6;"/>
   </g>
   <g id="patch_55">
    <path clip-path="url(#p16ca0fd0ba)" d="M 333.148119 317.72 
L 345.442616 317.72 
L 345.442616 311.203971 
L 333.148119 311.203971 
z
" style="fill:#ff7f0e;opacity:0.6;"/>
   </g>
   <g id="patch_56">
    <path clip-path="url(#p16ca0fd0ba)" d="M 345.442616 317.72 
L 357.737112 317.72 
L 357.737112 309.663818 
L 345.442616 309.663818 
z
" style="fill:#ff7f0e;opacity:0.6;"/>
   </g>
   <g id="patch_57">
    <path clip-path="url(#p16ca0fd0ba)" d="M 357.737112 317.72 
L 370.031609 317.72 
L 370.031609 307.768246 
L 357.737112 307.768246 
z
" style="fill:#ff7f0e;opacity:0.6;"/>
   </g>
   <g id="patch_58">
    <path clip-path="url(#p16ca0fd0ba)" d="M 370.031609 317.72 
L 382.326105 317.72 
L 382.326105 306.109621 
L 370.031609 306.109621 
z
" style="fill:#ff7f0e;opacity:0.6;"/>
   </g>
   <g id="patch_59">
    <path clip-path="url(#p16ca0fd0ba)" d="M 382.326105 317.72 
L 394.620602 317.72 
L 394.620602 300.067485 
L 382.326105 300.067485 
z
" style="fill:#ff7f0e;opacity:0.6;"/>
   </g>
   <g id="patch_60">
    <path clip-path="url(#p16ca0fd0ba)" d="M 394.620602 317.72 
L 406.915098 317.72 
L 406.915098 287.1539 
L 394.620602 287.1539 
z
" style="fill:#ff7f0e;opacity:0.6;"/>
   </g>
   <g id="patch_61">
    <path clip-path="url(#p16ca0fd0ba)" d="M 406.915098 317.72 
L 419.209594 317.72 
L 419.209594 257.180165 
L 406.915098 257.180165 
z
" style="fill:#ff7f0e;opacity:0.6;"/>
   </g>
   <g id="patch_62">
    <path clip-path="url(#p16ca0fd0ba)" d="M 419.209594 317.72 
L 431.504091 317.72 
L 431.504091 40.729524 
L 419.209594 40.729524 
z
" style="fill:#ff7f0e;opacity:0.6;"/>
   </g>
   <g id="matplotlib.axis_1">
    <g id="xtick_1">
     <g id="line2d_1">
      <defs>
       <path d="M 0 0 
L 0 3.5 
" id="m890df1a0ea" style="stroke:#000000;stroke-width:0.8;"/>
      </defs>
      <g>
       <use style="stroke:#000000;stroke-width:0.8;" x="91.26181" xlink:href="#m890df1a0ea" y="317.72"/>
      </g>
     </g>
     <g id="text_1">
      <!-- 0.2 -->
      <g transform="translate(83.310247 332.318437)scale(0.1 -0.1)">
       <defs>
        <path d="M 2034 4250 
Q 1547 4250 1301 3770 
Q 1056 3291 1056 2328 
Q 1056 1369 1301 889 
Q 1547 409 2034 409 
Q 2525 409 2770 889 
Q 3016 1369 3016 2328 
Q 3016 3291 2770 3770 
Q 2525 4250 2034 4250 
z
M 2034 4750 
Q 2819 4750 3233 4129 
Q 3647 3509 3647 2328 
Q 3647 1150 3233 529 
Q 2819 -91 2034 -91 
Q 1250 -91 836 529 
Q 422 1150 422 2328 
Q 422 3509 836 4129 
Q 1250 4750 2034 4750 
z
" id="DejaVuSans-30" transform="scale(0.015625)"/>
        <path d="M 684 794 
L 1344 794 
L 1344 0 
L 684 0 
L 684 794 
z
" id="DejaVuSans-2e" transform="scale(0.015625)"/>
        <path d="M 1228 531 
L 3431 531 
L 3431 0 
L 469 0 
L 469 531 
Q 828 903 1448 1529 
Q 2069 2156 2228 2338 
Q 2531 2678 2651 2914 
Q 2772 3150 2772 3378 
Q 2772 3750 2511 3984 
Q 2250 4219 1831 4219 
Q 1534 4219 1204 4116 
Q 875 4013 500 3803 
L 500 4441 
Q 881 4594 1212 4672 
Q 1544 4750 1819 4750 
Q 2544 4750 2975 4387 
Q 3406 4025 3406 3419 
Q 3406 3131 3298 2873 
Q 3191 2616 2906 2266 
Q 2828 2175 2409 1742 
Q 1991 1309 1228 531 
z
" id="DejaVuSans-32" transform="scale(0.015625)"/>
       </defs>
       <use xlink:href="#DejaVuSans-30"/>
       <use x="63.623047" xlink:href="#DejaVuSans-2e"/>
       <use x="95.410156" xlink:href="#DejaVuSans-32"/>
      </g>
     </g>
    </g>
    <g id="xtick_2">
     <g id="line2d_2">
      <g>
       <use style="stroke:#000000;stroke-width:0.8;" x="176.325802" xlink:href="#m890df1a0ea" y="317.72"/>
      </g>
     </g>
     <g id="text_2">
      <!-- 0.4 -->
      <g transform="translate(168.37424 332.318437)scale(0.1 -0.1)">
       <defs>
        <path d="M 2419 4116 
L 825 1625 
L 2419 1625 
L 2419 4116 
z
M 2253 4666 
L 3047 4666 
L 3047 1625 
L 3713 1625 
L 3713 1100 
L 3047 1100 
L 3047 0 
L 2419 0 
L 2419 1100 
L 313 1100 
L 313 1709 
L 2253 4666 
z
" id="DejaVuSans-34" transform="scale(0.015625)"/>
       </defs>
       <use xlink:href="#DejaVuSans-30"/>
       <use x="63.623047" xlink:href="#DejaVuSans-2e"/>
       <use x="95.410156" xlink:href="#DejaVuSans-34"/>
      </g>
     </g>
    </g>
    <g id="xtick_3">
     <g id="line2d_3">
      <g>
       <use style="stroke:#000000;stroke-width:0.8;" x="261.389795" xlink:href="#m890df1a0ea" y="317.72"/>
      </g>
     </g>
     <g id="text_3">
      <!-- 0.6 -->
      <g transform="translate(253.438233 332.318437)scale(0.1 -0.1)">
       <defs>
        <path d="M 2113 2584 
Q 1688 2584 1439 2293 
Q 1191 2003 1191 1497 
Q 1191 994 1439 701 
Q 1688 409 2113 409 
Q 2538 409 2786 701 
Q 3034 994 3034 1497 
Q 3034 2003 2786 2293 
Q 2538 2584 2113 2584 
z
M 3366 4563 
L 3366 3988 
Q 3128 4100 2886 4159 
Q 2644 4219 2406 4219 
Q 1781 4219 1451 3797 
Q 1122 3375 1075 2522 
Q 1259 2794 1537 2939 
Q 1816 3084 2150 3084 
Q 2853 3084 3261 2657 
Q 3669 2231 3669 1497 
Q 3669 778 3244 343 
Q 2819 -91 2113 -91 
Q 1303 -91 875 529 
Q 447 1150 447 2328 
Q 447 3434 972 4092 
Q 1497 4750 2381 4750 
Q 2619 4750 2861 4703 
Q 3103 4656 3366 4563 
z
" id="DejaVuSans-36" transform="scale(0.015625)"/>
       </defs>
       <use xlink:href="#DejaVuSans-30"/>
       <use x="63.623047" xlink:href="#DejaVuSans-2e"/>
       <use x="95.410156" xlink:href="#DejaVuSans-36"/>
      </g>
     </g>
    </g>
    <g id="xtick_4">
     <g id="line2d_4">
      <g>
       <use style="stroke:#000000;stroke-width:0.8;" x="346.453788" xlink:href="#m890df1a0ea" y="317.72"/>
      </g>
     </g>
     <g id="text_4">
      <!-- 0.8 -->
      <g transform="translate(338.502225 332.318437)scale(0.1 -0.1)">
       <defs>
        <path d="M 2034 2216 
Q 1584 2216 1326 1975 
Q 1069 1734 1069 1313 
Q 1069 891 1326 650 
Q 1584 409 2034 409 
Q 2484 409 2743 651 
Q 3003 894 3003 1313 
Q 3003 1734 2745 1975 
Q 2488 2216 2034 2216 
z
M 1403 2484 
Q 997 2584 770 2862 
Q 544 3141 544 3541 
Q 544 4100 942 4425 
Q 1341 4750 2034 4750 
Q 2731 4750 3128 4425 
Q 3525 4100 3525 3541 
Q 3525 3141 3298 2862 
Q 3072 2584 2669 2484 
Q 3125 2378 3379 2068 
Q 3634 1759 3634 1313 
Q 3634 634 3220 271 
Q 2806 -91 2034 -91 
Q 1263 -91 848 271 
Q 434 634 434 1313 
Q 434 1759 690 2068 
Q 947 2378 1403 2484 
z
M 1172 3481 
Q 1172 3119 1398 2916 
Q 1625 2713 2034 2713 
Q 2441 2713 2670 2916 
Q 2900 3119 2900 3481 
Q 2900 3844 2670 4047 
Q 2441 4250 2034 4250 
Q 1625 4250 1398 4047 
Q 1172 3844 1172 3481 
z
" id="DejaVuSans-38" transform="scale(0.015625)"/>
       </defs>
       <use xlink:href="#DejaVuSans-30"/>
       <use x="63.623047" xlink:href="#DejaVuSans-2e"/>
       <use x="95.410156" xlink:href="#DejaVuSans-38"/>
      </g>
     </g>
    </g>
    <g id="xtick_5">
     <g id="line2d_5">
      <g>
       <use style="stroke:#000000;stroke-width:0.8;" x="431.51778" xlink:href="#m890df1a0ea" y="317.72"/>
      </g>
     </g>
     <g id="text_5">
      <!-- 1.0 -->
      <g transform="translate(423.566218 332.318437)scale(0.1 -0.1)">
       <defs>
        <path d="M 794 531 
L 1825 531 
L 1825 4091 
L 703 3866 
L 703 4441 
L 1819 4666 
L 2450 4666 
L 2450 531 
L 3481 531 
L 3481 0 
L 794 0 
L 794 531 
z
" id="DejaVuSans-31" transform="scale(0.015625)"/>
       </defs>
       <use xlink:href="#DejaVuSans-31"/>
       <use x="63.623047" xlink:href="#DejaVuSans-2e"/>
       <use x="95.410156" xlink:href="#DejaVuSans-30"/>
      </g>
     </g>
    </g>
   </g>
   <g id="matplotlib.axis_2">
    <g id="ytick_1">
     <g id="line2d_6">
      <defs>
       <path d="M 0 0 
L -3.5 0 
" id="m14be584f7e" style="stroke:#000000;stroke-width:0.8;"/>
      </defs>
      <g>
       <use style="stroke:#000000;stroke-width:0.8;" x="43.09" xlink:href="#m14be584f7e" y="317.72"/>
      </g>
     </g>
     <g id="text_6">
      <!-- 0 -->
      <g transform="translate(29.7275 321.519219)scale(0.1 -0.1)">
       <use xlink:href="#DejaVuSans-30"/>
      </g>
     </g>
    </g>
    <g id="ytick_2">
     <g id="line2d_7">
      <g>
       <use style="stroke:#000000;stroke-width:0.8;" x="43.09" xlink:href="#m14be584f7e" y="258.483371"/>
      </g>
     </g>
     <g id="text_7">
      <!-- 500 -->
      <g transform="translate(17.0025 262.28259)scale(0.1 -0.1)">
       <defs>
        <path d="M 691 4666 
L 3169 4666 
L 3169 4134 
L 1269 4134 
L 1269 2991 
Q 1406 3038 1543 3061 
Q 1681 3084 1819 3084 
Q 2600 3084 3056 2656 
Q 3513 2228 3513 1497 
Q 3513 744 3044 326 
Q 2575 -91 1722 -91 
Q 1428 -91 1123 -41 
Q 819 9 494 109 
L 494 744 
Q 775 591 1075 516 
Q 1375 441 1709 441 
Q 2250 441 2565 725 
Q 2881 1009 2881 1497 
Q 2881 1984 2565 2268 
Q 2250 2553 1709 2553 
Q 1456 2553 1204 2497 
Q 953 2441 691 2322 
L 691 4666 
z
" id="DejaVuSans-35" transform="scale(0.015625)"/>
       </defs>
       <use xlink:href="#DejaVuSans-35"/>
       <use x="63.623047" xlink:href="#DejaVuSans-30"/>
       <use x="127.246094" xlink:href="#DejaVuSans-30"/>
      </g>
     </g>
    </g>
    <g id="ytick_3">
     <g id="line2d_8">
      <g>
       <use style="stroke:#000000;stroke-width:0.8;" x="43.09" xlink:href="#m14be584f7e" y="199.246742"/>
      </g>
     </g>
     <g id="text_8">
      <!-- 1000 -->
      <g transform="translate(10.64 203.045961)scale(0.1 -0.1)">
       <use xlink:href="#DejaVuSans-31"/>
       <use x="63.623047" xlink:href="#DejaVuSans-30"/>
       <use x="127.246094" xlink:href="#DejaVuSans-30"/>
       <use x="190.869141" xlink:href="#DejaVuSans-30"/>
      </g>
     </g>
    </g>
    <g id="ytick_4">
     <g id="line2d_9">
      <g>
       <use style="stroke:#000000;stroke-width:0.8;" x="43.09" xlink:href="#m14be584f7e" y="140.010114"/>
      </g>
     </g>
     <g id="text_9">
      <!-- 1500 -->
      <g transform="translate(10.64 143.809332)scale(0.1 -0.1)">
       <use xlink:href="#DejaVuSans-31"/>
       <use x="63.623047" xlink:href="#DejaVuSans-35"/>
       <use x="127.246094" xlink:href="#DejaVuSans-30"/>
       <use x="190.869141" xlink:href="#DejaVuSans-30"/>
      </g>
     </g>
    </g>
    <g id="ytick_5">
     <g id="line2d_10">
      <g>
       <use style="stroke:#000000;stroke-width:0.8;" x="43.09" xlink:href="#m14be584f7e" y="80.773485"/>
      </g>
     </g>
     <g id="text_10">
      <!-- 2000 -->
      <g transform="translate(10.64 84.572704)scale(0.1 -0.1)">
       <use xlink:href="#DejaVuSans-32"/>
       <use x="63.623047" xlink:href="#DejaVuSans-30"/>
       <use x="127.246094" xlink:href="#DejaVuSans-30"/>
       <use x="190.869141" xlink:href="#DejaVuSans-30"/>
      </g>
     </g>
    </g>
   </g>
   <g id="patch_63">
    <path d="M 43.09 317.72 
L 43.09 26.88 
" style="fill:none;stroke:#000000;stroke-linecap:square;stroke-linejoin:miter;stroke-width:0.8;"/>
   </g>
   <g id="patch_64">
    <path d="M 450 317.72 
L 450 26.88 
" style="fill:none;stroke:#000000;stroke-linecap:square;stroke-linejoin:miter;stroke-width:0.8;"/>
   </g>
   <g id="patch_65">
    <path d="M 43.09 317.72 
L 450 317.72 
" style="fill:none;stroke:#000000;stroke-linecap:square;stroke-linejoin:miter;stroke-width:0.8;"/>
   </g>
   <g id="patch_66">
    <path d="M 43.09 26.88 
L 450 26.88 
" style="fill:none;stroke:#000000;stroke-linecap:square;stroke-linejoin:miter;stroke-width:0.8;"/>
   </g>
   <g id="text_11">
    <!-- Training data -->
    <g transform="translate(207.452187 20.88)scale(0.12 -0.12)">
     <defs>
      <path d="M -19 4666 
L 3928 4666 
L 3928 4134 
L 2272 4134 
L 2272 0 
L 1638 0 
L 1638 4134 
L -19 4134 
L -19 4666 
z
" id="DejaVuSans-54" transform="scale(0.015625)"/>
      <path d="M 2631 2963 
Q 2534 3019 2420 3045 
Q 2306 3072 2169 3072 
Q 1681 3072 1420 2755 
Q 1159 2438 1159 1844 
L 1159 0 
L 581 0 
L 581 3500 
L 1159 3500 
L 1159 2956 
Q 1341 3275 1631 3429 
Q 1922 3584 2338 3584 
Q 2397 3584 2469 3576 
Q 2541 3569 2628 3553 
L 2631 2963 
z
" id="DejaVuSans-72" transform="scale(0.015625)"/>
      <path d="M 2194 1759 
Q 1497 1759 1228 1600 
Q 959 1441 959 1056 
Q 959 750 1161 570 
Q 1363 391 1709 391 
Q 2188 391 2477 730 
Q 2766 1069 2766 1631 
L 2766 1759 
L 2194 1759 
z
M 3341 1997 
L 3341 0 
L 2766 0 
L 2766 531 
Q 2569 213 2275 61 
Q 1981 -91 1556 -91 
Q 1019 -91 701 211 
Q 384 513 384 1019 
Q 384 1609 779 1909 
Q 1175 2209 1959 2209 
L 2766 2209 
L 2766 2266 
Q 2766 2663 2505 2880 
Q 2244 3097 1772 3097 
Q 1472 3097 1187 3025 
Q 903 2953 641 2809 
L 641 3341 
Q 956 3463 1253 3523 
Q 1550 3584 1831 3584 
Q 2591 3584 2966 3190 
Q 3341 2797 3341 1997 
z
" id="DejaVuSans-61" transform="scale(0.015625)"/>
      <path d="M 603 3500 
L 1178 3500 
L 1178 0 
L 603 0 
L 603 3500 
z
M 603 4863 
L 1178 4863 
L 1178 4134 
L 603 4134 
L 603 4863 
z
" id="DejaVuSans-69" transform="scale(0.015625)"/>
      <path d="M 3513 2113 
L 3513 0 
L 2938 0 
L 2938 2094 
Q 2938 2591 2744 2837 
Q 2550 3084 2163 3084 
Q 1697 3084 1428 2787 
Q 1159 2491 1159 1978 
L 1159 0 
L 581 0 
L 581 3500 
L 1159 3500 
L 1159 2956 
Q 1366 3272 1645 3428 
Q 1925 3584 2291 3584 
Q 2894 3584 3203 3211 
Q 3513 2838 3513 2113 
z
" id="DejaVuSans-6e" transform="scale(0.015625)"/>
      <path d="M 2906 1791 
Q 2906 2416 2648 2759 
Q 2391 3103 1925 3103 
Q 1463 3103 1205 2759 
Q 947 2416 947 1791 
Q 947 1169 1205 825 
Q 1463 481 1925 481 
Q 2391 481 2648 825 
Q 2906 1169 2906 1791 
z
M 3481 434 
Q 3481 -459 3084 -895 
Q 2688 -1331 1869 -1331 
Q 1566 -1331 1297 -1286 
Q 1028 -1241 775 -1147 
L 775 -588 
Q 1028 -725 1275 -790 
Q 1522 -856 1778 -856 
Q 2344 -856 2625 -561 
Q 2906 -266 2906 331 
L 2906 616 
Q 2728 306 2450 153 
Q 2172 0 1784 0 
Q 1141 0 747 490 
Q 353 981 353 1791 
Q 353 2603 747 3093 
Q 1141 3584 1784 3584 
Q 2172 3584 2450 3431 
Q 2728 3278 2906 2969 
L 2906 3500 
L 3481 3500 
L 3481 434 
z
" id="DejaVuSans-67" transform="scale(0.015625)"/>
      <path id="DejaVuSans-20" transform="scale(0.015625)"/>
      <path d="M 2906 2969 
L 2906 4863 
L 3481 4863 
L 3481 0 
L 2906 0 
L 2906 525 
Q 2725 213 2448 61 
Q 2172 -91 1784 -91 
Q 1150 -91 751 415 
Q 353 922 353 1747 
Q 353 2572 751 3078 
Q 1150 3584 1784 3584 
Q 2172 3584 2448 3432 
Q 2725 3281 2906 2969 
z
M 947 1747 
Q 947 1113 1208 752 
Q 1469 391 1925 391 
Q 2381 391 2643 752 
Q 2906 1113 2906 1747 
Q 2906 2381 2643 2742 
Q 2381 3103 1925 3103 
Q 1469 3103 1208 2742 
Q 947 2381 947 1747 
z
" id="DejaVuSans-64" transform="scale(0.015625)"/>
      <path d="M 1172 4494 
L 1172 3500 
L 2356 3500 
L 2356 3053 
L 1172 3053 
L 1172 1153 
Q 1172 725 1289 603 
Q 1406 481 1766 481 
L 2356 481 
L 2356 0 
L 1766 0 
Q 1100 0 847 248 
Q 594 497 594 1153 
L 594 3053 
L 172 3053 
L 172 3500 
L 594 3500 
L 594 4494 
L 1172 4494 
z
" id="DejaVuSans-74" transform="scale(0.015625)"/>
     </defs>
     <use xlink:href="#DejaVuSans-54"/>
     <use x="46.333984" xlink:href="#DejaVuSans-72"/>
     <use x="87.447266" xlink:href="#DejaVuSans-61"/>
     <use x="148.726562" xlink:href="#DejaVuSans-69"/>
     <use x="176.509766" xlink:href="#DejaVuSans-6e"/>
     <use x="239.888672" xlink:href="#DejaVuSans-69"/>
     <use x="267.671875" xlink:href="#DejaVuSans-6e"/>
     <use x="331.050781" xlink:href="#DejaVuSans-67"/>
     <use x="394.527344" xlink:href="#DejaVuSans-20"/>
     <use x="426.314453" xlink:href="#DejaVuSans-64"/>
     <use x="489.791016" xlink:href="#DejaVuSans-61"/>
     <use x="551.070312" xlink:href="#DejaVuSans-74"/>
     <use x="590.279297" xlink:href="#DejaVuSans-61"/>
    </g>
   </g>
   <g id="legend_1">
    <g id="patch_67">
     <path d="M 50.09 64.23625 
L 113.479062 64.23625 
Q 115.479062 64.23625 115.479062 62.23625 
L 115.479062 33.88 
Q 115.479062 31.88 113.479062 31.88 
L 50.09 31.88 
Q 48.09 31.88 48.09 33.88 
L 48.09 62.23625 
Q 48.09 64.23625 50.09 64.23625 
z
" style="fill:#ffffff;opacity:0.8;stroke:#cccccc;stroke-linejoin:miter;"/>
    </g>
    <g id="patch_68">
     <path d="M 52.09 43.478437 
L 72.09 43.478437 
L 72.09 36.478437 
L 52.09 36.478437 
z
" style="fill:#1f77b4;opacity:0.6;"/>
    </g>
    <g id="text_12">
     <!-- Decoy -->
     <g transform="translate(80.09 43.478437)scale(0.1 -0.1)">
      <defs>
       <path d="M 1259 4147 
L 1259 519 
L 2022 519 
Q 2988 519 3436 956 
Q 3884 1394 3884 2338 
Q 3884 3275 3436 3711 
Q 2988 4147 2022 4147 
L 1259 4147 
z
M 628 4666 
L 1925 4666 
Q 3281 4666 3915 4102 
Q 4550 3538 4550 2338 
Q 4550 1131 3912 565 
Q 3275 0 1925 0 
L 628 0 
L 628 4666 
z
" id="DejaVuSans-44" transform="scale(0.015625)"/>
       <path d="M 3597 1894 
L 3597 1613 
L 953 1613 
Q 991 1019 1311 708 
Q 1631 397 2203 397 
Q 2534 397 2845 478 
Q 3156 559 3463 722 
L 3463 178 
Q 3153 47 2828 -22 
Q 2503 -91 2169 -91 
Q 1331 -91 842 396 
Q 353 884 353 1716 
Q 353 2575 817 3079 
Q 1281 3584 2069 3584 
Q 2775 3584 3186 3129 
Q 3597 2675 3597 1894 
z
M 3022 2063 
Q 3016 2534 2758 2815 
Q 2500 3097 2075 3097 
Q 1594 3097 1305 2825 
Q 1016 2553 972 2059 
L 3022 2063 
z
" id="DejaVuSans-65" transform="scale(0.015625)"/>
       <path d="M 3122 3366 
L 3122 2828 
Q 2878 2963 2633 3030 
Q 2388 3097 2138 3097 
Q 1578 3097 1268 2742 
Q 959 2388 959 1747 
Q 959 1106 1268 751 
Q 1578 397 2138 397 
Q 2388 397 2633 464 
Q 2878 531 3122 666 
L 3122 134 
Q 2881 22 2623 -34 
Q 2366 -91 2075 -91 
Q 1284 -91 818 406 
Q 353 903 353 1747 
Q 353 2603 823 3093 
Q 1294 3584 2113 3584 
Q 2378 3584 2631 3529 
Q 2884 3475 3122 3366 
z
" id="DejaVuSans-63" transform="scale(0.015625)"/>
       <path d="M 1959 3097 
Q 1497 3097 1228 2736 
Q 959 2375 959 1747 
Q 959 1119 1226 758 
Q 1494 397 1959 397 
Q 2419 397 2687 759 
Q 2956 1122 2956 1747 
Q 2956 2369 2687 2733 
Q 2419 3097 1959 3097 
z
M 1959 3584 
Q 2709 3584 3137 3096 
Q 3566 2609 3566 1747 
Q 3566 888 3137 398 
Q 2709 -91 1959 -91 
Q 1206 -91 779 398 
Q 353 888 353 1747 
Q 353 2609 779 3096 
Q 1206 3584 1959 3584 
z
" id="DejaVuSans-6f" transform="scale(0.015625)"/>
       <path d="M 2059 -325 
Q 1816 -950 1584 -1140 
Q 1353 -1331 966 -1331 
L 506 -1331 
L 506 -850 
L 844 -850 
Q 1081 -850 1212 -737 
Q 1344 -625 1503 -206 
L 1606 56 
L 191 3500 
L 800 3500 
L 1894 763 
L 2988 3500 
L 3597 3500 
L 2059 -325 
z
" id="DejaVuSans-79" transform="scale(0.015625)"/>
      </defs>
      <use xlink:href="#DejaVuSans-44"/>
      <use x="77.001953" xlink:href="#DejaVuSans-65"/>
      <use x="138.525391" xlink:href="#DejaVuSans-63"/>
      <use x="193.505859" xlink:href="#DejaVuSans-6f"/>
      <use x="254.6875" xlink:href="#DejaVuSans-79"/>
     </g>
    </g>
    <g id="patch_69">
     <path d="M 52.09 58.156563 
L 72.09 58.156563 
L 72.09 51.156563 
L 52.09 51.156563 
z
" style="fill:#ff7f0e;opacity:0.6;"/>
    </g>
    <g id="text_13">
     <!-- Target -->
     <g transform="translate(80.09 58.156563)scale(0.1 -0.1)">
      <use xlink:href="#DejaVuSans-54"/>
      <use x="44.583984" xlink:href="#DejaVuSans-61"/>
      <use x="105.863281" xlink:href="#DejaVuSans-72"/>
      <use x="145.226562" xlink:href="#DejaVuSans-67"/>
      <use x="208.703125" xlink:href="#DejaVuSans-65"/>
      <use x="270.226562" xlink:href="#DejaVuSans-74"/>
     </g>
    </g>
   </g>
  </g>
 </g>
 <defs>
  <clipPath id="p16ca0fd0ba">
   <rect height="290.84" width="406.91" x="43.09" y="26.88"/>
  </clipPath>
 </defs>
</svg>
