<?xml version="1.0" encoding="utf-8" standalone="no"?>
<!DOCTYPE svg PUBLIC "-//W3C//DTD SVG 1.1//EN"
  "http://www.w3.org/Graphics/SVG/1.1/DTD/svg11.dtd">
<svg height="345.6pt" version="1.1" viewBox="0 0 460.8 345.6" width="460.8pt" xmlns="http://www.w3.org/2000/svg" xmlns:xlink="http://www.w3.org/1999/xlink">
 <metadata>
  <rdf:RDF xmlns:cc="http://creativecommons.org/ns#" xmlns:dc="http://purl.org/dc/elements/1.1/" xmlns:rdf="http://www.w3.org/1999/02/22-rdf-syntax-ns#">
   <cc:Work>
    <dc:type rdf:resource="http://purl.org/dc/dcmitype/StillImage"/>
    <dc:date>2021-05-21T12:08:02.017611</dc:date>
    <dc:format>image/svg+xml</dc:format>
    <dc:creator>
     <cc:Agent>
      <dc:title>Matplotlib v3.4.2, https://matplotlib.org/</dc:title>
     </cc:Agent>
    </dc:creator>
   </cc:Work>
  </rdf:RDF>
 </metadata>
 <defs>
  <style type="text/css">*{stroke-linecap:butt;stroke-linejoin:round;}</style>
 </defs>
 <g id="figure_1">
  <g id="patch_1">
   <path d="M 0 345.6 
L 460.8 345.6 
L 460.8 0 
L 0 0 
z
" style="fill:#ffffff;"/>
  </g>
  <g id="axes_1">
   <g id="patch_2">
    <path d="M 57.6 307.584 
L 414.72 307.584 
L 414.72 41.472 
L 57.6 41.472 
z
" style="fill:#ffffff;"/>
   </g>
   <g id="patch_3">
    <path clip-path="url(#pf0d7e1d7c0)" d="M 73.832727 307.584 
L 78.235068 307.584 
L 78.235068 307.020591 
L 73.832727 307.020591 
z
" style="fill:#1f77b4;opacity:0.6;"/>
   </g>
   <g id="patch_4">
    <path clip-path="url(#pf0d7e1d7c0)" d="M 78.235068 307.584 
L 82.637414 307.584 
L 82.637414 300.259687 
L 78.235068 300.259687 
z
" style="fill:#1f77b4;opacity:0.6;"/>
   </g>
   <g id="patch_5">
    <path clip-path="url(#pf0d7e1d7c0)" d="M 82.637414 307.584 
L 87.039754 307.584 
L 87.039754 239.599354 
L 82.637414 239.599354 
z
" style="fill:#1f77b4;opacity:0.6;"/>
   </g>
   <g id="patch_6">
    <path clip-path="url(#pf0d7e1d7c0)" d="M 87.039754 307.584 
L 91.442095 307.584 
L 91.442095 183.634093 
L 87.039754 183.634093 
z
" style="fill:#1f77b4;opacity:0.6;"/>
   </g>
   <g id="patch_7">
    <path clip-path="url(#pf0d7e1d7c0)" d="M 91.442095 307.584 
L 95.844435 307.584 
L 95.844435 216.405697 
L 91.442095 216.405697 
z
" style="fill:#1f77b4;opacity:0.6;"/>
   </g>
   <g id="patch_8">
    <path clip-path="url(#pf0d7e1d7c0)" d="M 95.844429 307.584 
L 100.246775 307.584 
L 100.246775 270.023422 
L 95.844429 270.023422 
z
" style="fill:#1f77b4;opacity:0.6;"/>
   </g>
   <g id="patch_9">
    <path clip-path="url(#pf0d7e1d7c0)" d="M 100.246781 307.584 
L 104.649121 307.584 
L 104.649121 296.691432 
L 100.246781 296.691432 
z
" style="fill:#1f77b4;opacity:0.6;"/>
   </g>
   <g id="patch_10">
    <path clip-path="url(#pf0d7e1d7c0)" d="M 104.649121 307.584 
L 109.051462 307.584 
L 109.051462 306.92669 
L 104.649121 306.92669 
z
" style="fill:#1f77b4;opacity:0.6;"/>
   </g>
   <g id="patch_11">
    <path clip-path="url(#pf0d7e1d7c0)" d="M 109.051462 307.584 
L 113.453802 307.584 
L 113.453802 307.396197 
L 109.051462 307.396197 
z
" style="fill:#1f77b4;opacity:0.6;"/>
   </g>
   <g id="patch_12">
    <path clip-path="url(#pf0d7e1d7c0)" d="M 113.453802 307.584 
L 117.856148 307.584 
L 117.856148 307.208394 
L 113.453802 307.208394 
z
" style="fill:#1f77b4;opacity:0.6;"/>
   </g>
   <g id="patch_13">
    <path clip-path="url(#pf0d7e1d7c0)" d="M 117.856154 307.584 
L 122.258483 307.584 
L 122.258483 307.396197 
L 117.856154 307.396197 
z
" style="fill:#1f77b4;opacity:0.6;"/>
   </g>
   <g id="patch_14">
    <path clip-path="url(#pf0d7e1d7c0)" d="M 122.258483 307.584 
L 126.660835 307.584 
L 126.660835 307.584 
L 122.258483 307.584 
z
" style="fill:#1f77b4;opacity:0.6;"/>
   </g>
   <g id="patch_15">
    <path clip-path="url(#pf0d7e1d7c0)" d="M 126.660835 307.584 
L 131.063175 307.584 
L 131.063175 307.584 
L 126.660835 307.584 
z
" style="fill:#1f77b4;opacity:0.6;"/>
   </g>
   <g id="patch_16">
    <path clip-path="url(#pf0d7e1d7c0)" d="M 131.063164 307.584 
L 135.465504 307.584 
L 135.465504 307.584 
L 131.063164 307.584 
z
" style="fill:#1f77b4;opacity:0.6;"/>
   </g>
   <g id="patch_17">
    <path clip-path="url(#pf0d7e1d7c0)" d="M 135.465515 307.584 
L 139.867856 307.584 
L 139.867856 307.584 
L 135.465515 307.584 
z
" style="fill:#1f77b4;opacity:0.6;"/>
   </g>
   <g id="patch_18">
    <path clip-path="url(#pf0d7e1d7c0)" d="M 139.867845 307.584 
L 144.270185 307.584 
L 144.270185 307.490099 
L 139.867845 307.490099 
z
" style="fill:#1f77b4;opacity:0.6;"/>
   </g>
   <g id="patch_19">
    <path clip-path="url(#pf0d7e1d7c0)" d="M 144.270196 307.584 
L 148.672537 307.584 
L 148.672537 307.490099 
L 144.270196 307.490099 
z
" style="fill:#1f77b4;opacity:0.6;"/>
   </g>
   <g id="patch_20">
    <path clip-path="url(#pf0d7e1d7c0)" d="M 148.672526 307.584 
L 153.074866 307.584 
L 153.074866 307.490099 
L 148.672526 307.490099 
z
" style="fill:#1f77b4;opacity:0.6;"/>
   </g>
   <g id="patch_21">
    <path clip-path="url(#pf0d7e1d7c0)" d="M 153.074877 307.584 
L 157.477229 307.584 
L 157.477229 307.584 
L 153.074877 307.584 
z
" style="fill:#1f77b4;opacity:0.6;"/>
   </g>
   <g id="patch_22">
    <path clip-path="url(#pf0d7e1d7c0)" d="M 157.477229 307.584 
L 161.879569 307.584 
L 161.879569 307.584 
L 157.477229 307.584 
z
" style="fill:#1f77b4;opacity:0.6;"/>
   </g>
   <g id="patch_23">
    <path clip-path="url(#pf0d7e1d7c0)" d="M 161.879558 307.584 
L 166.281898 307.584 
L 166.281898 307.584 
L 161.879558 307.584 
z
" style="fill:#1f77b4;opacity:0.6;"/>
   </g>
   <g id="patch_24">
    <path clip-path="url(#pf0d7e1d7c0)" d="M 166.281909 307.584 
L 170.68425 307.584 
L 170.68425 307.584 
L 166.281909 307.584 
z
" style="fill:#1f77b4;opacity:0.6;"/>
   </g>
   <g id="patch_25">
    <path clip-path="url(#pf0d7e1d7c0)" d="M 170.684239 307.584 
L 175.086579 307.584 
L 175.086579 307.584 
L 170.684239 307.584 
z
" style="fill:#1f77b4;opacity:0.6;"/>
   </g>
   <g id="patch_26">
    <path clip-path="url(#pf0d7e1d7c0)" d="M 175.08659 307.584 
L 179.488931 307.584 
L 179.488931 307.584 
L 175.08659 307.584 
z
" style="fill:#1f77b4;opacity:0.6;"/>
   </g>
   <g id="patch_27">
    <path clip-path="url(#pf0d7e1d7c0)" d="M 179.48892 307.584 
L 183.89126 307.584 
L 183.89126 307.584 
L 179.48892 307.584 
z
" style="fill:#1f77b4;opacity:0.6;"/>
   </g>
   <g id="patch_28">
    <path clip-path="url(#pf0d7e1d7c0)" d="M 183.891271 307.584 
L 188.293612 307.584 
L 188.293612 307.490099 
L 183.891271 307.490099 
z
" style="fill:#1f77b4;opacity:0.6;"/>
   </g>
   <g id="patch_29">
    <path clip-path="url(#pf0d7e1d7c0)" d="M 188.293612 307.584 
L 192.695963 307.584 
L 192.695963 307.584 
L 188.293612 307.584 
z
" style="fill:#1f77b4;opacity:0.6;"/>
   </g>
   <g id="patch_30">
    <path clip-path="url(#pf0d7e1d7c0)" d="M 192.695952 307.584 
L 197.098292 307.584 
L 197.098292 307.584 
L 192.695952 307.584 
z
" style="fill:#1f77b4;opacity:0.6;"/>
   </g>
   <g id="patch_31">
    <path clip-path="url(#pf0d7e1d7c0)" d="M 197.098303 307.584 
L 201.500644 307.584 
L 201.500644 307.584 
L 197.098303 307.584 
z
" style="fill:#1f77b4;opacity:0.6;"/>
   </g>
   <g id="patch_32">
    <path clip-path="url(#pf0d7e1d7c0)" d="M 201.500633 307.584 
L 205.902973 307.584 
L 205.902973 307.490099 
L 201.500633 307.490099 
z
" style="fill:#1f77b4;opacity:0.6;"/>
   </g>
   <g id="patch_33">
    <path clip-path="url(#pf0d7e1d7c0)" d="M 76.236995 307.584 
L 86.97867 307.584 
L 86.97867 235.279887 
L 76.236995 235.279887 
z
" style="fill:#ff7f0e;opacity:0.6;"/>
   </g>
   <g id="patch_34">
    <path clip-path="url(#pf0d7e1d7c0)" d="M 86.978665 307.584 
L 97.72034 307.584 
L 97.72034 54.144 
L 86.978665 54.144 
z
" style="fill:#ff7f0e;opacity:0.6;"/>
   </g>
   <g id="patch_35">
    <path clip-path="url(#pf0d7e1d7c0)" d="M 97.720345 307.584 
L 108.462025 307.584 
L 108.462025 178.563415 
L 97.720345 178.563415 
z
" style="fill:#ff7f0e;opacity:0.6;"/>
   </g>
   <g id="patch_36">
    <path clip-path="url(#pf0d7e1d7c0)" d="M 108.462025 307.584 
L 119.2037 307.584 
L 119.2037 279.319665 
L 108.462025 279.319665 
z
" style="fill:#ff7f0e;opacity:0.6;"/>
   </g>
   <g id="patch_37">
    <path clip-path="url(#pf0d7e1d7c0)" d="M 119.203695 307.584 
L 129.945375 307.584 
L 129.945375 290.400036 
L 119.203695 290.400036 
z
" style="fill:#ff7f0e;opacity:0.6;"/>
   </g>
   <g id="patch_38">
    <path clip-path="url(#pf0d7e1d7c0)" d="M 129.945375 307.584 
L 140.687055 307.584 
L 140.687055 292.465867 
L 129.945375 292.465867 
z
" style="fill:#ff7f0e;opacity:0.6;"/>
   </g>
   <g id="patch_39">
    <path clip-path="url(#pf0d7e1d7c0)" d="M 140.687055 307.584 
L 151.428725 307.584 
L 151.428725 297.81825 
L 140.687055 297.81825 
z
" style="fill:#ff7f0e;opacity:0.6;"/>
   </g>
   <g id="patch_40">
    <path clip-path="url(#pf0d7e1d7c0)" d="M 151.428725 307.584 
L 162.170405 307.584 
L 162.170405 296.597531 
L 151.428725 296.597531 
z
" style="fill:#ff7f0e;opacity:0.6;"/>
   </g>
   <g id="patch_41">
    <path clip-path="url(#pf0d7e1d7c0)" d="M 162.170416 307.584 
L 172.912085 307.584 
L 172.912085 298.193856 
L 162.170416 298.193856 
z
" style="fill:#ff7f0e;opacity:0.6;"/>
   </g>
   <g id="patch_42">
    <path clip-path="url(#pf0d7e1d7c0)" d="M 172.912074 307.584 
L 183.653754 307.584 
L 183.653754 297.254841 
L 172.912074 297.254841 
z
" style="fill:#ff7f0e;opacity:0.6;"/>
   </g>
   <g id="patch_43">
    <path clip-path="url(#pf0d7e1d7c0)" d="M 183.653754 307.584 
L 194.395435 307.584 
L 194.395435 298.193856 
L 183.653754 298.193856 
z
" style="fill:#ff7f0e;opacity:0.6;"/>
   </g>
   <g id="patch_44">
    <path clip-path="url(#pf0d7e1d7c0)" d="M 194.395435 307.584 
L 205.137104 307.584 
L 205.137104 296.691432 
L 194.395435 296.691432 
z
" style="fill:#ff7f0e;opacity:0.6;"/>
   </g>
   <g id="patch_45">
    <path clip-path="url(#pf0d7e1d7c0)" d="M 205.137115 307.584 
L 215.878795 307.584 
L 215.878795 298.47556 
L 205.137115 298.47556 
z
" style="fill:#ff7f0e;opacity:0.6;"/>
   </g>
   <g id="patch_46">
    <path clip-path="url(#pf0d7e1d7c0)" d="M 215.878751 307.584 
L 226.620432 307.584 
L 226.620432 299.320673 
L 215.878751 299.320673 
z
" style="fill:#ff7f0e;opacity:0.6;"/>
   </g>
   <g id="patch_47">
    <path clip-path="url(#pf0d7e1d7c0)" d="M 226.620454 307.584 
L 237.362134 307.584 
L 237.362134 298.287757 
L 226.620454 298.287757 
z
" style="fill:#ff7f0e;opacity:0.6;"/>
   </g>
   <g id="patch_48">
    <path clip-path="url(#pf0d7e1d7c0)" d="M 237.362112 307.584 
L 248.103792 307.584 
L 248.103792 296.128024 
L 237.362112 296.128024 
z
" style="fill:#ff7f0e;opacity:0.6;"/>
   </g>
   <g id="patch_49">
    <path clip-path="url(#pf0d7e1d7c0)" d="M 248.103814 307.584 
L 258.845495 307.584 
L 258.845495 296.597531 
L 248.103814 296.597531 
z
" style="fill:#ff7f0e;opacity:0.6;"/>
   </g>
   <g id="patch_50">
    <path clip-path="url(#pf0d7e1d7c0)" d="M 258.845495 307.584 
L 269.587153 307.584 
L 269.587153 297.912151 
L 258.845495 297.912151 
z
" style="fill:#ff7f0e;opacity:0.6;"/>
   </g>
   <g id="patch_51">
    <path clip-path="url(#pf0d7e1d7c0)" d="M 269.587131 307.584 
L 280.328811 307.584 
L 280.328811 296.597531 
L 269.587131 296.597531 
z
" style="fill:#ff7f0e;opacity:0.6;"/>
   </g>
   <g id="patch_52">
    <path clip-path="url(#pf0d7e1d7c0)" d="M 280.328833 307.584 
L 291.070514 307.584 
L 291.070514 294.343896 
L 280.328833 294.343896 
z
" style="fill:#ff7f0e;opacity:0.6;"/>
   </g>
   <g id="patch_53">
    <path clip-path="url(#pf0d7e1d7c0)" d="M 291.070492 307.584 
L 301.812172 307.584 
L 301.812172 295.470714 
L 291.070492 295.470714 
z
" style="fill:#ff7f0e;opacity:0.6;"/>
   </g>
   <g id="patch_54">
    <path clip-path="url(#pf0d7e1d7c0)" d="M 301.812194 307.584 
L 312.553874 307.584 
L 312.553874 293.029276 
L 301.812194 293.029276 
z
" style="fill:#ff7f0e;opacity:0.6;"/>
   </g>
   <g id="patch_55">
    <path clip-path="url(#pf0d7e1d7c0)" d="M 312.553874 307.584 
L 323.295533 307.584 
L 323.295533 292.935375 
L 312.553874 292.935375 
z
" style="fill:#ff7f0e;opacity:0.6;"/>
   </g>
   <g id="patch_56">
    <path clip-path="url(#pf0d7e1d7c0)" d="M 323.295511 307.584 
L 334.037191 307.584 
L 334.037191 291.99636 
L 323.295511 291.99636 
z
" style="fill:#ff7f0e;opacity:0.6;"/>
   </g>
   <g id="patch_57">
    <path clip-path="url(#pf0d7e1d7c0)" d="M 334.037213 307.584 
L 344.778893 307.584 
L 344.778893 285.986668 
L 334.037213 285.986668 
z
" style="fill:#ff7f0e;opacity:0.6;"/>
   </g>
   <g id="patch_58">
    <path clip-path="url(#pf0d7e1d7c0)" d="M 344.778871 307.584 
L 355.520551 307.584 
L 355.520551 284.296442 
L 344.778871 284.296442 
z
" style="fill:#ff7f0e;opacity:0.6;"/>
   </g>
   <g id="patch_59">
    <path clip-path="url(#pf0d7e1d7c0)" d="M 355.520573 307.584 
L 366.262254 307.584 
L 366.262254 276.127016 
L 355.520573 276.127016 
z
" style="fill:#ff7f0e;opacity:0.6;"/>
   </g>
   <g id="patch_60">
    <path clip-path="url(#pf0d7e1d7c0)" d="M 366.262254 307.584 
L 377.003912 307.584 
L 377.003912 268.333196 
L 366.262254 268.333196 
z
" style="fill:#ff7f0e;opacity:0.6;"/>
   </g>
   <g id="patch_61">
    <path clip-path="url(#pf0d7e1d7c0)" d="M 377.00389 307.584 
L 387.74557 307.584 
L 387.74557 232.650647 
L 377.00389 232.650647 
z
" style="fill:#ff7f0e;opacity:0.6;"/>
   </g>
   <g id="patch_62">
    <path clip-path="url(#pf0d7e1d7c0)" d="M 387.745592 307.584 
L 398.487273 307.584 
L 398.487273 86.070491 
L 387.745592 86.070491 
z
" style="fill:#ff7f0e;opacity:0.6;"/>
   </g>
   <g id="matplotlib.axis_1">
    <g id="xtick_1">
     <g id="line2d_1">
      <defs>
       <path d="M 0 0 
L 0 3.5 
" id="m2ee290d9bf" style="stroke:#000000;stroke-width:0.8;"/>
      </defs>
      <g>
       <use style="stroke:#000000;stroke-width:0.8;" x="103.258428" xlink:href="#m2ee290d9bf" y="307.584"/>
      </g>
     </g>
     <g id="text_1">
      <!-- 0.2 -->
      <g transform="translate(95.306865 322.182437)scale(0.1 -0.1)">
       <defs>
        <path d="M 2034 4250 
Q 1547 4250 1301 3770 
Q 1056 3291 1056 2328 
Q 1056 1369 1301 889 
Q 1547 409 2034 409 
Q 2525 409 2770 889 
Q 3016 1369 3016 2328 
Q 3016 3291 2770 3770 
Q 2525 4250 2034 4250 
z
M 2034 4750 
Q 2819 4750 3233 4129 
Q 3647 3509 3647 2328 
Q 3647 1150 3233 529 
Q 2819 -91 2034 -91 
Q 1250 -91 836 529 
Q 422 1150 422 2328 
Q 422 3509 836 4129 
Q 1250 4750 2034 4750 
z
" id="DejaVuSans-30" transform="scale(0.015625)"/>
        <path d="M 684 794 
L 1344 794 
L 1344 0 
L 684 0 
L 684 794 
z
" id="DejaVuSans-2e" transform="scale(0.015625)"/>
        <path d="M 1228 531 
L 3431 531 
L 3431 0 
L 469 0 
L 469 531 
Q 828 903 1448 1529 
Q 2069 2156 2228 2338 
Q 2531 2678 2651 2914 
Q 2772 3150 2772 3378 
Q 2772 3750 2511 3984 
Q 2250 4219 1831 4219 
Q 1534 4219 1204 4116 
Q 875 4013 500 3803 
L 500 4441 
Q 881 4594 1212 4672 
Q 1544 4750 1819 4750 
Q 2544 4750 2975 4387 
Q 3406 4025 3406 3419 
Q 3406 3131 3298 2873 
Q 3191 2616 2906 2266 
Q 2828 2175 2409 1742 
Q 1991 1309 1228 531 
z
" id="DejaVuSans-32" transform="scale(0.015625)"/>
       </defs>
       <use xlink:href="#DejaVuSans-30"/>
       <use x="63.623047" xlink:href="#DejaVuSans-2e"/>
       <use x="95.410156" xlink:href="#DejaVuSans-32"/>
      </g>
     </g>
    </g>
    <g id="xtick_2">
     <g id="line2d_2">
      <g>
       <use style="stroke:#000000;stroke-width:0.8;" x="177.065964" xlink:href="#m2ee290d9bf" y="307.584"/>
      </g>
     </g>
     <g id="text_2">
      <!-- 0.4 -->
      <g transform="translate(169.114401 322.182437)scale(0.1 -0.1)">
       <defs>
        <path d="M 2419 4116 
L 825 1625 
L 2419 1625 
L 2419 4116 
z
M 2253 4666 
L 3047 4666 
L 3047 1625 
L 3713 1625 
L 3713 1100 
L 3047 1100 
L 3047 0 
L 2419 0 
L 2419 1100 
L 313 1100 
L 313 1709 
L 2253 4666 
z
" id="DejaVuSans-34" transform="scale(0.015625)"/>
       </defs>
       <use xlink:href="#DejaVuSans-30"/>
       <use x="63.623047" xlink:href="#DejaVuSans-2e"/>
       <use x="95.410156" xlink:href="#DejaVuSans-34"/>
      </g>
     </g>
    </g>
    <g id="xtick_3">
     <g id="line2d_3">
      <g>
       <use style="stroke:#000000;stroke-width:0.8;" x="250.873499" xlink:href="#m2ee290d9bf" y="307.584"/>
      </g>
     </g>
     <g id="text_3">
      <!-- 0.6 -->
      <g transform="translate(242.921937 322.182437)scale(0.1 -0.1)">
       <defs>
        <path d="M 2113 2584 
Q 1688 2584 1439 2293 
Q 1191 2003 1191 1497 
Q 1191 994 1439 701 
Q 1688 409 2113 409 
Q 2538 409 2786 701 
Q 3034 994 3034 1497 
Q 3034 2003 2786 2293 
Q 2538 2584 2113 2584 
z
M 3366 4563 
L 3366 3988 
Q 3128 4100 2886 4159 
Q 2644 4219 2406 4219 
Q 1781 4219 1451 3797 
Q 1122 3375 1075 2522 
Q 1259 2794 1537 2939 
Q 1816 3084 2150 3084 
Q 2853 3084 3261 2657 
Q 3669 2231 3669 1497 
Q 3669 778 3244 343 
Q 2819 -91 2113 -91 
Q 1303 -91 875 529 
Q 447 1150 447 2328 
Q 447 3434 972 4092 
Q 1497 4750 2381 4750 
Q 2619 4750 2861 4703 
Q 3103 4656 3366 4563 
z
" id="DejaVuSans-36" transform="scale(0.015625)"/>
       </defs>
       <use xlink:href="#DejaVuSans-30"/>
       <use x="63.623047" xlink:href="#DejaVuSans-2e"/>
       <use x="95.410156" xlink:href="#DejaVuSans-36"/>
      </g>
     </g>
    </g>
    <g id="xtick_4">
     <g id="line2d_4">
      <g>
       <use style="stroke:#000000;stroke-width:0.8;" x="324.681035" xlink:href="#m2ee290d9bf" y="307.584"/>
      </g>
     </g>
     <g id="text_4">
      <!-- 0.8 -->
      <g transform="translate(316.729472 322.182437)scale(0.1 -0.1)">
       <defs>
        <path d="M 2034 2216 
Q 1584 2216 1326 1975 
Q 1069 1734 1069 1313 
Q 1069 891 1326 650 
Q 1584 409 2034 409 
Q 2484 409 2743 651 
Q 3003 894 3003 1313 
Q 3003 1734 2745 1975 
Q 2488 2216 2034 2216 
z
M 1403 2484 
Q 997 2584 770 2862 
Q 544 3141 544 3541 
Q 544 4100 942 4425 
Q 1341 4750 2034 4750 
Q 2731 4750 3128 4425 
Q 3525 4100 3525 3541 
Q 3525 3141 3298 2862 
Q 3072 2584 2669 2484 
Q 3125 2378 3379 2068 
Q 3634 1759 3634 1313 
Q 3634 634 3220 271 
Q 2806 -91 2034 -91 
Q 1263 -91 848 271 
Q 434 634 434 1313 
Q 434 1759 690 2068 
Q 947 2378 1403 2484 
z
M 1172 3481 
Q 1172 3119 1398 2916 
Q 1625 2713 2034 2713 
Q 2441 2713 2670 2916 
Q 2900 3119 2900 3481 
Q 2900 3844 2670 4047 
Q 2441 4250 2034 4250 
Q 1625 4250 1398 4047 
Q 1172 3844 1172 3481 
z
" id="DejaVuSans-38" transform="scale(0.015625)"/>
       </defs>
       <use xlink:href="#DejaVuSans-30"/>
       <use x="63.623047" xlink:href="#DejaVuSans-2e"/>
       <use x="95.410156" xlink:href="#DejaVuSans-38"/>
      </g>
     </g>
    </g>
    <g id="xtick_5">
     <g id="line2d_5">
      <g>
       <use style="stroke:#000000;stroke-width:0.8;" x="398.488571" xlink:href="#m2ee290d9bf" y="307.584"/>
      </g>
     </g>
     <g id="text_5">
      <!-- 1.0 -->
      <g transform="translate(390.537008 322.182437)scale(0.1 -0.1)">
       <defs>
        <path d="M 794 531 
L 1825 531 
L 1825 4091 
L 703 3866 
L 703 4441 
L 1819 4666 
L 2450 4666 
L 2450 531 
L 3481 531 
L 3481 0 
L 794 0 
L 794 531 
z
" id="DejaVuSans-31" transform="scale(0.015625)"/>
       </defs>
       <use xlink:href="#DejaVuSans-31"/>
       <use x="63.623047" xlink:href="#DejaVuSans-2e"/>
       <use x="95.410156" xlink:href="#DejaVuSans-30"/>
      </g>
     </g>
    </g>
   </g>
   <g id="matplotlib.axis_2">
    <g id="ytick_1">
     <g id="line2d_6">
      <defs>
       <path d="M 0 0 
L -3.5 0 
" id="ma6caed1175" style="stroke:#000000;stroke-width:0.8;"/>
      </defs>
      <g>
       <use style="stroke:#000000;stroke-width:0.8;" x="57.6" xlink:href="#ma6caed1175" y="307.584"/>
      </g>
     </g>
     <g id="text_6">
      <!-- 0 -->
      <g transform="translate(44.2375 311.383219)scale(0.1 -0.1)">
       <use xlink:href="#DejaVuSans-30"/>
      </g>
     </g>
    </g>
    <g id="ytick_2">
     <g id="line2d_7">
      <g>
       <use style="stroke:#000000;stroke-width:0.8;" x="57.6" xlink:href="#ma6caed1175" y="260.633278"/>
      </g>
     </g>
     <g id="text_7">
      <!-- 500 -->
      <g transform="translate(31.5125 264.432496)scale(0.1 -0.1)">
       <defs>
        <path d="M 691 4666 
L 3169 4666 
L 3169 4134 
L 1269 4134 
L 1269 2991 
Q 1406 3038 1543 3061 
Q 1681 3084 1819 3084 
Q 2600 3084 3056 2656 
Q 3513 2228 3513 1497 
Q 3513 744 3044 326 
Q 2575 -91 1722 -91 
Q 1428 -91 1123 -41 
Q 819 9 494 109 
L 494 744 
Q 775 591 1075 516 
Q 1375 441 1709 441 
Q 2250 441 2565 725 
Q 2881 1009 2881 1497 
Q 2881 1984 2565 2268 
Q 2250 2553 1709 2553 
Q 1456 2553 1204 2497 
Q 953 2441 691 2322 
L 691 4666 
z
" id="DejaVuSans-35" transform="scale(0.015625)"/>
       </defs>
       <use xlink:href="#DejaVuSans-35"/>
       <use x="63.623047" xlink:href="#DejaVuSans-30"/>
       <use x="127.246094" xlink:href="#DejaVuSans-30"/>
      </g>
     </g>
    </g>
    <g id="ytick_3">
     <g id="line2d_8">
      <g>
       <use style="stroke:#000000;stroke-width:0.8;" x="57.6" xlink:href="#ma6caed1175" y="213.682555"/>
      </g>
     </g>
     <g id="text_8">
      <!-- 1000 -->
      <g transform="translate(25.15 217.481774)scale(0.1 -0.1)">
       <use xlink:href="#DejaVuSans-31"/>
       <use x="63.623047" xlink:href="#DejaVuSans-30"/>
       <use x="127.246094" xlink:href="#DejaVuSans-30"/>
       <use x="190.869141" xlink:href="#DejaVuSans-30"/>
      </g>
     </g>
    </g>
    <g id="ytick_4">
     <g id="line2d_9">
      <g>
       <use style="stroke:#000000;stroke-width:0.8;" x="57.6" xlink:href="#ma6caed1175" y="166.731833"/>
      </g>
     </g>
     <g id="text_9">
      <!-- 1500 -->
      <g transform="translate(25.15 170.531051)scale(0.1 -0.1)">
       <use xlink:href="#DejaVuSans-31"/>
       <use x="63.623047" xlink:href="#DejaVuSans-35"/>
       <use x="127.246094" xlink:href="#DejaVuSans-30"/>
       <use x="190.869141" xlink:href="#DejaVuSans-30"/>
      </g>
     </g>
    </g>
    <g id="ytick_5">
     <g id="line2d_10">
      <g>
       <use style="stroke:#000000;stroke-width:0.8;" x="57.6" xlink:href="#ma6caed1175" y="119.78111"/>
      </g>
     </g>
     <g id="text_10">
      <!-- 2000 -->
      <g transform="translate(25.15 123.580329)scale(0.1 -0.1)">
       <use xlink:href="#DejaVuSans-32"/>
       <use x="63.623047" xlink:href="#DejaVuSans-30"/>
       <use x="127.246094" xlink:href="#DejaVuSans-30"/>
       <use x="190.869141" xlink:href="#DejaVuSans-30"/>
      </g>
     </g>
    </g>
    <g id="ytick_6">
     <g id="line2d_11">
      <g>
       <use style="stroke:#000000;stroke-width:0.8;" x="57.6" xlink:href="#ma6caed1175" y="72.830388"/>
      </g>
     </g>
     <g id="text_11">
      <!-- 2500 -->
      <g transform="translate(25.15 76.629606)scale(0.1 -0.1)">
       <use xlink:href="#DejaVuSans-32"/>
       <use x="63.623047" xlink:href="#DejaVuSans-35"/>
       <use x="127.246094" xlink:href="#DejaVuSans-30"/>
       <use x="190.869141" xlink:href="#DejaVuSans-30"/>
      </g>
     </g>
    </g>
   </g>
   <g id="patch_63">
    <path d="M 57.6 307.584 
L 57.6 41.472 
" style="fill:none;stroke:#000000;stroke-linecap:square;stroke-linejoin:miter;stroke-width:0.8;"/>
   </g>
   <g id="patch_64">
    <path d="M 414.72 307.584 
L 414.72 41.472 
" style="fill:none;stroke:#000000;stroke-linecap:square;stroke-linejoin:miter;stroke-width:0.8;"/>
   </g>
   <g id="patch_65">
    <path d="M 57.6 307.584 
L 414.72 307.584 
" style="fill:none;stroke:#000000;stroke-linecap:square;stroke-linejoin:miter;stroke-width:0.8;"/>
   </g>
   <g id="patch_66">
    <path d="M 57.6 41.472 
L 414.72 41.472 
" style="fill:none;stroke:#000000;stroke-linecap:square;stroke-linejoin:miter;stroke-width:0.8;"/>
   </g>
   <g id="text_12">
    <!-- All data -->
    <g transform="translate(213.3 35.472)scale(0.12 -0.12)">
     <defs>
      <path d="M 2188 4044 
L 1331 1722 
L 3047 1722 
L 2188 4044 
z
M 1831 4666 
L 2547 4666 
L 4325 0 
L 3669 0 
L 3244 1197 
L 1141 1197 
L 716 0 
L 50 0 
L 1831 4666 
z
" id="DejaVuSans-41" transform="scale(0.015625)"/>
      <path d="M 603 4863 
L 1178 4863 
L 1178 0 
L 603 0 
L 603 4863 
z
" id="DejaVuSans-6c" transform="scale(0.015625)"/>
      <path id="DejaVuSans-20" transform="scale(0.015625)"/>
      <path d="M 2906 2969 
L 2906 4863 
L 3481 4863 
L 3481 0 
L 2906 0 
L 2906 525 
Q 2725 213 2448 61 
Q 2172 -91 1784 -91 
Q 1150 -91 751 415 
Q 353 922 353 1747 
Q 353 2572 751 3078 
Q 1150 3584 1784 3584 
Q 2172 3584 2448 3432 
Q 2725 3281 2906 2969 
z
M 947 1747 
Q 947 1113 1208 752 
Q 1469 391 1925 391 
Q 2381 391 2643 752 
Q 2906 1113 2906 1747 
Q 2906 2381 2643 2742 
Q 2381 3103 1925 3103 
Q 1469 3103 1208 2742 
Q 947 2381 947 1747 
z
" id="DejaVuSans-64" transform="scale(0.015625)"/>
      <path d="M 2194 1759 
Q 1497 1759 1228 1600 
Q 959 1441 959 1056 
Q 959 750 1161 570 
Q 1363 391 1709 391 
Q 2188 391 2477 730 
Q 2766 1069 2766 1631 
L 2766 1759 
L 2194 1759 
z
M 3341 1997 
L 3341 0 
L 2766 0 
L 2766 531 
Q 2569 213 2275 61 
Q 1981 -91 1556 -91 
Q 1019 -91 701 211 
Q 384 513 384 1019 
Q 384 1609 779 1909 
Q 1175 2209 1959 2209 
L 2766 2209 
L 2766 2266 
Q 2766 2663 2505 2880 
Q 2244 3097 1772 3097 
Q 1472 3097 1187 3025 
Q 903 2953 641 2809 
L 641 3341 
Q 956 3463 1253 3523 
Q 1550 3584 1831 3584 
Q 2591 3584 2966 3190 
Q 3341 2797 3341 1997 
z
" id="DejaVuSans-61" transform="scale(0.015625)"/>
      <path d="M 1172 4494 
L 1172 3500 
L 2356 3500 
L 2356 3053 
L 1172 3053 
L 1172 1153 
Q 1172 725 1289 603 
Q 1406 481 1766 481 
L 2356 481 
L 2356 0 
L 1766 0 
Q 1100 0 847 248 
Q 594 497 594 1153 
L 594 3053 
L 172 3053 
L 172 3500 
L 594 3500 
L 594 4494 
L 1172 4494 
z
" id="DejaVuSans-74" transform="scale(0.015625)"/>
     </defs>
     <use xlink:href="#DejaVuSans-41"/>
     <use x="68.408203" xlink:href="#DejaVuSans-6c"/>
     <use x="96.191406" xlink:href="#DejaVuSans-6c"/>
     <use x="123.974609" xlink:href="#DejaVuSans-20"/>
     <use x="155.761719" xlink:href="#DejaVuSans-64"/>
     <use x="219.238281" xlink:href="#DejaVuSans-61"/>
     <use x="280.517578" xlink:href="#DejaVuSans-74"/>
     <use x="319.726562" xlink:href="#DejaVuSans-61"/>
    </g>
   </g>
   <g id="legend_1">
    <g id="patch_67">
     <path d="M 344.330938 78.82825 
L 407.72 78.82825 
Q 409.72 78.82825 409.72 76.82825 
L 409.72 48.472 
Q 409.72 46.472 407.72 46.472 
L 344.330938 46.472 
Q 342.330938 46.472 342.330938 48.472 
L 342.330938 76.82825 
Q 342.330938 78.82825 344.330938 78.82825 
z
" style="fill:#ffffff;opacity:0.8;stroke:#cccccc;stroke-linejoin:miter;"/>
    </g>
    <g id="patch_68">
     <path d="M 346.330938 58.070437 
L 366.330938 58.070437 
L 366.330938 51.070437 
L 346.330938 51.070437 
z
" style="fill:#1f77b4;opacity:0.6;"/>
    </g>
    <g id="text_13">
     <!-- Decoy -->
     <g transform="translate(374.330938 58.070437)scale(0.1 -0.1)">
      <defs>
       <path d="M 1259 4147 
L 1259 519 
L 2022 519 
Q 2988 519 3436 956 
Q 3884 1394 3884 2338 
Q 3884 3275 3436 3711 
Q 2988 4147 2022 4147 
L 1259 4147 
z
M 628 4666 
L 1925 4666 
Q 3281 4666 3915 4102 
Q 4550 3538 4550 2338 
Q 4550 1131 3912 565 
Q 3275 0 1925 0 
L 628 0 
L 628 4666 
z
" id="DejaVuSans-44" transform="scale(0.015625)"/>
       <path d="M 3597 1894 
L 3597 1613 
L 953 1613 
Q 991 1019 1311 708 
Q 1631 397 2203 397 
Q 2534 397 2845 478 
Q 3156 559 3463 722 
L 3463 178 
Q 3153 47 2828 -22 
Q 2503 -91 2169 -91 
Q 1331 -91 842 396 
Q 353 884 353 1716 
Q 353 2575 817 3079 
Q 1281 3584 2069 3584 
Q 2775 3584 3186 3129 
Q 3597 2675 3597 1894 
z
M 3022 2063 
Q 3016 2534 2758 2815 
Q 2500 3097 2075 3097 
Q 1594 3097 1305 2825 
Q 1016 2553 972 2059 
L 3022 2063 
z
" id="DejaVuSans-65" transform="scale(0.015625)"/>
       <path d="M 3122 3366 
L 3122 2828 
Q 2878 2963 2633 3030 
Q 2388 3097 2138 3097 
Q 1578 3097 1268 2742 
Q 959 2388 959 1747 
Q 959 1106 1268 751 
Q 1578 397 2138 397 
Q 2388 397 2633 464 
Q 2878 531 3122 666 
L 3122 134 
Q 2881 22 2623 -34 
Q 2366 -91 2075 -91 
Q 1284 -91 818 406 
Q 353 903 353 1747 
Q 353 2603 823 3093 
Q 1294 3584 2113 3584 
Q 2378 3584 2631 3529 
Q 2884 3475 3122 3366 
z
" id="DejaVuSans-63" transform="scale(0.015625)"/>
       <path d="M 1959 3097 
Q 1497 3097 1228 2736 
Q 959 2375 959 1747 
Q 959 1119 1226 758 
Q 1494 397 1959 397 
Q 2419 397 2687 759 
Q 2956 1122 2956 1747 
Q 2956 2369 2687 2733 
Q 2419 3097 1959 3097 
z
M 1959 3584 
Q 2709 3584 3137 3096 
Q 3566 2609 3566 1747 
Q 3566 888 3137 398 
Q 2709 -91 1959 -91 
Q 1206 -91 779 398 
Q 353 888 353 1747 
Q 353 2609 779 3096 
Q 1206 3584 1959 3584 
z
" id="DejaVuSans-6f" transform="scale(0.015625)"/>
       <path d="M 2059 -325 
Q 1816 -950 1584 -1140 
Q 1353 -1331 966 -1331 
L 506 -1331 
L 506 -850 
L 844 -850 
Q 1081 -850 1212 -737 
Q 1344 -625 1503 -206 
L 1606 56 
L 191 3500 
L 800 3500 
L 1894 763 
L 2988 3500 
L 3597 3500 
L 2059 -325 
z
" id="DejaVuSans-79" transform="scale(0.015625)"/>
      </defs>
      <use xlink:href="#DejaVuSans-44"/>
      <use x="77.001953" xlink:href="#DejaVuSans-65"/>
      <use x="138.525391" xlink:href="#DejaVuSans-63"/>
      <use x="193.505859" xlink:href="#DejaVuSans-6f"/>
      <use x="254.6875" xlink:href="#DejaVuSans-79"/>
     </g>
    </g>
    <g id="patch_69">
     <path d="M 346.330938 72.748562 
L 366.330938 72.748562 
L 366.330938 65.748562 
L 346.330938 65.748562 
z
" style="fill:#ff7f0e;opacity:0.6;"/>
    </g>
    <g id="text_14">
     <!-- Target -->
     <g transform="translate(374.330938 72.748562)scale(0.1 -0.1)">
      <defs>
       <path d="M -19 4666 
L 3928 4666 
L 3928 4134 
L 2272 4134 
L 2272 0 
L 1638 0 
L 1638 4134 
L -19 4134 
L -19 4666 
z
" id="DejaVuSans-54" transform="scale(0.015625)"/>
       <path d="M 2631 2963 
Q 2534 3019 2420 3045 
Q 2306 3072 2169 3072 
Q 1681 3072 1420 2755 
Q 1159 2438 1159 1844 
L 1159 0 
L 581 0 
L 581 3500 
L 1159 3500 
L 1159 2956 
Q 1341 3275 1631 3429 
Q 1922 3584 2338 3584 
Q 2397 3584 2469 3576 
Q 2541 3569 2628 3553 
L 2631 2963 
z
" id="DejaVuSans-72" transform="scale(0.015625)"/>
       <path d="M 2906 1791 
Q 2906 2416 2648 2759 
Q 2391 3103 1925 3103 
Q 1463 3103 1205 2759 
Q 947 2416 947 1791 
Q 947 1169 1205 825 
Q 1463 481 1925 481 
Q 2391 481 2648 825 
Q 2906 1169 2906 1791 
z
M 3481 434 
Q 3481 -459 3084 -895 
Q 2688 -1331 1869 -1331 
Q 1566 -1331 1297 -1286 
Q 1028 -1241 775 -1147 
L 775 -588 
Q 1028 -725 1275 -790 
Q 1522 -856 1778 -856 
Q 2344 -856 2625 -561 
Q 2906 -266 2906 331 
L 2906 616 
Q 2728 306 2450 153 
Q 2172 0 1784 0 
Q 1141 0 747 490 
Q 353 981 353 1791 
Q 353 2603 747 3093 
Q 1141 3584 1784 3584 
Q 2172 3584 2450 3431 
Q 2728 3278 2906 2969 
L 2906 3500 
L 3481 3500 
L 3481 434 
z
" id="DejaVuSans-67" transform="scale(0.015625)"/>
      </defs>
      <use xlink:href="#DejaVuSans-54"/>
      <use x="44.583984" xlink:href="#DejaVuSans-61"/>
      <use x="105.863281" xlink:href="#DejaVuSans-72"/>
      <use x="145.226562" xlink:href="#DejaVuSans-67"/>
      <use x="208.703125" xlink:href="#DejaVuSans-65"/>
      <use x="270.226562" xlink:href="#DejaVuSans-74"/>
     </g>
    </g>
   </g>
  </g>
 </g>
 <defs>
  <clipPath id="pf0d7e1d7c0">
   <rect height="266.112" width="357.12" x="57.6" y="41.472"/>
  </clipPath>
 </defs>
</svg>
